<svg width="40" height="25" viewBox="0 0 40 25" fill="none" xmlns="http://www.w3.org/2000/svg">
<path d="M0.734375 24.3281V19.1719C0.734375 15.7031 1.57812 12.3125 3.26562 9C4.98438 5.6875 7.42188 2.89063 10.5781 0.609375L18.0781 5.39062C16.7031 7.26562 15.6719 9.32812 14.9844 11.5781C14.2969 13.7969 13.9531 16.2969 13.9531 19.0781V24.3281H0.734375ZM22.0156 24.3281V19.1719C22.0156 15.7031 22.8594 12.3125 24.5469 9C26.2656 5.6875 28.7031 2.89063 31.8594 0.609375L39.3594 5.39062C37.9844 7.26562 36.9531 9.32812 36.2656 11.5781C35.5781 13.7969 35.2344 16.2969 35.2344 19.0781V24.3281H22.0156Z" fill="#E51314"/>
</svg>
